<?xml version="1.0" encoding="utf-8"?>
<svg width="170px" height="85px" viewBox="0 0 170 85" version="1.1" xmlns:xlink="http://www.w3.org/1999/xlink" xmlns="http://www.w3.org/2000/svg">
  <desc>Created with Lunacy</desc>
  <g id="Карта-Copy-5">
    <path d="M9.999 0L160.001 0Q160.246 0 160.492 0.0120442Q160.737 0.0240885 160.981 0.0481479Q161.225 0.0722074 161.468 0.108224Q161.711 0.144241 161.952 0.192128Q162.192 0.240015 162.431 0.299657Q162.669 0.3593 162.904 0.430553Q163.138 0.501807 163.37 0.584501Q163.601 0.667194 163.827 0.761128Q164.054 0.855062 164.276 0.960011Q164.498 1.06496 164.714 1.18067Q164.931 1.29638 165.142 1.42257Q165.352 1.54876 165.556 1.68514Q165.76 1.82151 165.957 1.96773Q166.155 2.11395 166.344 2.26967Q166.534 2.42539 166.716 2.59023Q166.898 2.75507 167.071 2.92864Q167.245 3.10221 167.41 3.28408Q167.575 3.46596 167.73 3.6557Q167.886 3.84545 168.032 4.0426Q168.178 4.23976 168.315 4.44385Q168.451 4.64795 168.577 4.85849Q168.704 5.06903 168.819 5.2855Q168.935 5.50198 169.04 5.72388Q169.145 5.94577 169.239 6.17255Q169.333 6.39932 169.415 6.63044Q169.498 6.86155 169.569 7.09644Q169.641 7.33134 169.7 7.56944Q169.76 7.80755 169.808 8.04829Q169.856 8.28904 169.892 8.53184Q169.928 8.77465 169.952 9.01893Q169.976 9.26321 169.988 9.50837Q170 9.75354 170 9.999L170 75.001Q170 75.2465 169.988 75.4916Q169.976 75.7368 169.952 75.9811Q169.928 76.2253 169.892 76.4682Q169.856 76.711 169.808 76.9517Q169.76 77.1925 169.7 77.4306Q169.641 77.6687 169.569 77.9035Q169.498 78.1384 169.415 78.3695Q169.333 78.6007 169.239 78.8274Q169.145 79.0542 169.04 79.2761Q168.935 79.498 168.819 79.7145Q168.704 79.931 168.577 80.1415Q168.451 80.3521 168.315 80.5561Q168.178 80.7602 168.032 80.9574Q167.886 81.1545 167.73 81.3443Q167.575 81.534 167.41 81.7159Q167.245 81.8978 167.071 82.0714Q166.898 82.2449 166.716 82.4098Q166.534 82.5746 166.344 82.7303Q166.155 82.8861 165.957 83.0323Q165.76 83.1785 165.556 83.3149Q165.352 83.4512 165.142 83.5774Q164.931 83.7036 164.714 83.8193Q164.498 83.935 164.276 84.04Q164.054 84.1449 163.827 84.2389Q163.601 84.3328 163.37 84.4155Q163.138 84.4982 162.904 84.5695Q162.669 84.6407 162.431 84.7003Q162.192 84.76 161.952 84.8079Q161.711 84.8558 161.468 84.8918Q161.225 84.9278 160.981 84.9519Q160.737 84.9759 160.492 84.988Q160.246 85 160.001 85L9.999 85Q9.75354 85 9.50837 84.988Q9.26321 84.9759 9.01893 84.9519Q8.77465 84.9278 8.53184 84.8918Q8.28904 84.8558 8.04829 84.8079Q7.80755 84.76 7.56944 84.7003Q7.33134 84.6407 7.09644 84.5695Q6.86155 84.4982 6.63044 84.4155Q6.39932 84.3328 6.17255 84.2389Q5.94577 84.1449 5.72388 84.04Q5.50198 83.935 5.2855 83.8193Q5.06903 83.7036 4.85849 83.5774Q4.64795 83.4512 4.44385 83.3149Q4.23976 83.1785 4.0426 83.0323Q3.84545 82.8861 3.6557 82.7303Q3.46596 82.5746 3.28408 82.4098Q3.10221 82.2449 2.92864 82.0714Q2.75507 81.8978 2.59023 81.7159Q2.42539 81.534 2.26967 81.3443Q2.11395 81.1545 1.96773 80.9574Q1.82151 80.7602 1.68514 80.5561Q1.54876 80.3521 1.42257 80.1415Q1.29638 79.931 1.18067 79.7145Q1.06496 79.498 0.960011 79.2761Q0.855062 79.0542 0.761128 78.8274Q0.667194 78.6007 0.584501 78.3696Q0.501807 78.1384 0.430553 77.9036Q0.3593 77.6687 0.299657 77.4306Q0.240015 77.1925 0.192128 76.9517Q0.144241 76.711 0.108224 76.4682Q0.0722074 76.2253 0.0481479 75.9811Q0.0240885 75.7368 0.0120442 75.4916Q0 75.2465 0 75.001L0 9.999Q0 9.75354 0.0120442 9.50837Q0.0240885 9.26321 0.0481479 9.01893Q0.0722074 8.77465 0.108224 8.53184Q0.144241 8.28904 0.192128 8.04829Q0.240015 7.80755 0.299657 7.56944Q0.3593 7.33134 0.430553 7.09644Q0.501807 6.86155 0.584501 6.63044Q0.667194 6.39932 0.761128 6.17255Q0.855062 5.94577 0.960011 5.72388Q1.06496 5.50198 1.18067 5.2855Q1.29638 5.06903 1.42257 4.85849Q1.54876 4.64795 1.68514 4.44385Q1.82151 4.23976 1.96773 4.0426Q2.11395 3.84545 2.26967 3.6557Q2.42539 3.46596 2.59023 3.28408Q2.75507 3.10221 2.92864 2.92864Q3.10221 2.75507 3.28408 2.59023Q3.46596 2.42539 3.6557 2.26967Q3.84545 2.11395 4.0426 1.96773Q4.23976 1.82151 4.44385 1.68514Q4.64795 1.54876 4.85849 1.42257Q5.06903 1.29638 5.2855 1.18067Q5.50198 1.06496 5.72388 0.960011Q5.94577 0.855062 6.17255 0.761128Q6.39932 0.667194 6.63044 0.584501Q6.86155 0.501807 7.09644 0.430553Q7.33134 0.3593 7.56944 0.299657Q7.80755 0.240015 8.04829 0.192128Q8.28904 0.144241 8.53184 0.108224Q8.77465 0.0722074 9.01893 0.0481479Q9.26321 0.0240885 9.50837 0.0120442Q9.75354 0 9.999 0Z" id="Rectangle-15" fill="#C5D5E6" stroke="none" />
    <g id="Group" transform="translate(70.04688 20)">
      <path d="M2.15463 12.5704L1.47266 12.5704C0.835761 12.5704 0.27393 12.1627 0.0744935 11.5559C-0.124943 10.949 0.0850569 10.2858 0.596888 9.90575L13.7159 0.166305C14.0144 -0.0554349 14.4227 -0.0554349 14.7211 0.166305L27.8397 9.90575C28.3517 10.2859 28.5617 10.949 28.3622 11.5559C28.1628 12.1627 27.6008 12.5704 26.9641 12.5704L26.2821 12.5704C26.2867 12.6062 26.2898 12.6424 26.2898 12.6794L26.2898 26.0039L26.7534 26.0039C27.22 26.0039 27.5984 26.3836 27.5984 26.8518C27.5984 27.32 27.22 27.6998 26.7534 27.6998L1.68337 27.6998C1.21675 27.6998 0.838296 27.32 0.838296 26.8518C0.838296 26.3836 1.21675 26.0039 1.68337 26.0039L2.14689 26.0039L2.14689 12.6794C2.14689 12.6424 2.14999 12.6062 2.15463 12.5704ZM26.3024 10.8745L14.2176 1.90283L2.13281 10.8745L26.3024 10.8745ZM7.04486 26.0039L8.56246 26.0039L8.56246 12.6794C8.56246 12.6424 8.56556 12.6062 8.57021 12.5704L7.03711 12.5704C7.04176 12.6062 7.04486 12.6424 7.04486 12.6794L7.04486 26.0039ZM14.9764 26.0039L13.4589 26.0039L13.4589 12.6794C13.4589 12.6424 13.4558 12.6062 13.4512 12.5704L14.9841 12.5704C14.9795 12.6062 14.9764 12.6424 14.9764 12.6794L14.9764 26.0039ZM21.3924 12.6794L21.3924 26.0039L19.8749 26.0039L19.8749 12.6794C19.8749 12.6424 19.8718 12.6062 19.8672 12.5704L21.4003 12.5704C21.3956 12.6062 21.3924 12.6424 21.3924 12.6794ZM3.83594 26.0038L3.83594 13.5273L5.35326 13.5273L5.35326 26.0038L3.83594 26.0038ZM10.252 13.5273L10.252 26.0038L11.7694 26.0038L11.7694 13.5273L10.252 13.5273ZM16.668 26.0038L16.668 13.5273L18.1854 13.5273L18.1854 26.0038L16.668 26.0038ZM23.082 13.5273L23.082 26.0038L24.5994 26.0038L24.5994 13.5273L23.082 13.5273Z" transform="translate(0.7480469 0)" id="Shape" fill="#FFFFFF" fill-rule="evenodd" stroke="none" />
      <path d="M29.0908 0L0.84507 0C0.378451 0 0 0.379742 0 0.847953C0 1.31616 0.378451 1.69591 0.84507 1.69591L29.0908 1.69591C29.5575 1.69591 29.9359 1.31616 29.9359 0.847953C29.9359 0.379742 29.5576 0 29.0908 0Z" transform="translate(0 28.71777)" id="Shape" fill="#FFFFFF" stroke="none" />
    </g>
    <g id="Банковський-переказ" fill="#FFFFFF" transform="translate(23 61)">
      <path d="M69.4219 3.2832Q69.334 4.10938 68.7568 4.58691Q68.1797 5.06445 67.3125 5.06445Q66.4219 5.06445 65.8623 4.58691Q65.3027 4.10938 65.25 3.2832L66.1992 3.2832Q66.2813 4.38477 67.3242 4.38477Q67.793 4.38477 68.0977 4.09473Q68.4023 3.80469 68.4727 3.2832L69.4219 3.2832ZM1.10156 3.79883L1.10156 12.2012L3.59766 12.2012Q4.86328 12.2012 5.5957 11.5273Q6.32813 10.8535 6.32813 9.69336Q6.32812 8.57422 5.63086 7.96777Q4.93359 7.36133 3.67969 7.36133L2.08594 7.36133L2.08594 4.68945L5.58984 4.68945L5.58984 3.79883L1.10156 3.79883ZM113.104 11.0879L113.104 12.0313Q113.76 12.3477 114.996 12.3477Q116.156 12.3477 116.818 11.8613Q117.48 11.375 117.48 10.5547Q117.48 9.94531 117.076 9.54688Q116.672 9.14844 116.004 9.0957L116.004 9.06641Q116.59 8.94336 116.915 8.56543Q117.24 8.1875 117.24 7.66602Q117.24 6.05469 115.049 6.05469Q114.217 6.05469 113.221 6.41797L113.221 7.31445Q114.1 6.875 114.973 6.875Q115.582 6.875 115.934 7.11523Q116.285 7.35547 116.285 7.75977Q116.285 8.70898 114.756 8.70898L114.193 8.70898L114.193 9.52344L114.785 9.52344Q116.525 9.52344 116.525 10.5195Q116.525 11.5273 114.938 11.5273Q113.889 11.5273 113.104 11.0879ZM11.168 12.2012L12.1289 12.2012L12.1289 8.29883Q12.1289 6.06055 10.0137 6.06055Q8.85938 6.06055 7.97461 6.62305L7.97461 7.60742Q8.84766 6.86914 9.93164 6.86914Q11.168 6.86914 11.168 8.39844L9.36914 8.65039Q7.38867 8.92578 7.38867 10.6074Q7.38867 11.3926 7.89551 11.8672Q8.40234 12.3418 9.29883 12.3418Q10.5176 12.3418 11.1445 11.2637L11.168 11.2637L11.168 12.2012ZM29.3379 12.3418Q28.0078 12.3418 27.2139 11.501Q26.4199 10.6602 26.4199 9.27148Q26.4199 7.75977 27.2461 6.91016Q28.0723 6.06055 29.4785 6.06055Q30.8203 6.06055 31.5732 6.88672Q32.3262 7.71289 32.3262 9.17773Q32.3262 10.6133 31.5146 11.4775Q30.7031 12.3418 29.3379 12.3418ZM44.3086 11.9258Q43.6172 12.3418 42.668 12.3418Q41.3848 12.3418 40.5967 11.5068Q39.8086 10.6719 39.8086 9.3418Q39.8086 7.85938 40.6582 6.95996Q41.5078 6.06055 42.9258 6.06055Q43.7168 6.06055 44.3203 6.35352L44.3203 7.33789Q43.6523 6.86914 42.8906 6.86914Q41.9707 6.86914 41.3818 7.52832Q40.793 8.1875 40.793 9.25977Q40.793 10.3145 41.3467 10.9238Q41.9004 11.5332 42.832 11.5332Q43.6172 11.5332 44.3086 11.0117L44.3086 11.9258ZM86.7539 9.44141L82.5176 9.44141Q82.541 10.4434 83.0566 10.9883Q83.5723 11.5332 84.4746 11.5332Q85.4883 11.5332 86.3379 10.8652L86.3379 11.7676Q85.5469 12.3418 84.2461 12.3418Q82.9746 12.3418 82.248 11.5244Q81.5215 10.707 81.5215 9.22461Q81.5215 7.82422 82.3154 6.94238Q83.1094 6.06055 84.2871 6.06055Q85.4648 6.06055 86.1094 6.82227Q86.7539 7.58398 86.7539 8.9375L86.7539 9.44141ZM89.168 11.334L89.1914 11.334Q89.8242 12.3418 90.9902 12.3418Q92.2617 12.3418 92.9941 11.4365Q93.7266 10.5313 93.7266 9.02539Q93.7266 7.67188 93.0762 6.86621Q92.4258 6.06055 91.2656 6.06055Q89.9004 6.06055 89.1914 7.25586L89.168 7.25586L89.168 6.20117L88.207 6.20117L88.207 14.9609L89.168 14.9609L89.168 11.334ZM100.084 9.44141L95.8477 9.44141Q95.8711 10.4434 96.3867 10.9883Q96.9023 11.5332 97.8047 11.5332Q98.8184 11.5332 99.668 10.8652L99.668 11.7676Q98.877 12.3418 97.5762 12.3418Q96.3047 12.3418 95.5781 11.5244Q94.8516 10.707 94.8516 9.22461Q94.8516 7.82422 95.6455 6.94238Q96.4395 6.06055 97.6172 6.06055Q98.7949 6.06055 99.4395 6.82227Q100.084 7.58398 100.084 8.9375L100.084 9.44141ZM111.797 12.2012L110.836 12.2012L110.836 11.2637L110.813 11.2637Q110.186 12.3418 108.967 12.3418Q108.07 12.3418 107.563 11.8672Q107.057 11.3926 107.057 10.6074Q107.057 8.92578 109.037 8.65039L110.836 8.39844Q110.836 6.86914 109.6 6.86914Q108.516 6.86914 107.643 7.60742L107.643 6.62305Q108.527 6.06055 109.682 6.06055Q111.797 6.06055 111.797 8.29883L111.797 12.2012ZM18.9199 12.2012L17.959 12.2012L17.959 9.47656L14.9004 9.47656L14.9004 12.2012L13.9395 12.2012L13.9395 6.20117L14.9004 6.20117L14.9004 8.66211L17.959 8.66211L17.959 6.20117L18.9199 6.20117L18.9199 12.2012ZM24.498 12.2012L25.8457 12.2012L22.8457 9.0957L25.6289 6.20117L24.3691 6.20117L21.8496 8.94922L21.8262 8.94922L21.8262 6.20117L20.8652 6.20117L20.8652 12.2012L21.8262 12.2012L21.8262 9.31836L21.8496 9.31836L24.498 12.2012ZM33.8613 6.20117L33.8613 12.2012L36.6445 12.2012Q37.4824 12.2012 38.0479 11.7031Q38.6133 11.2051 38.6133 10.4727Q38.6133 9.25977 37.2363 9.08398Q38.3848 8.83203 38.3848 7.66602Q38.3848 6.98633 37.8721 6.59375Q37.3594 6.20117 36.4746 6.20117L33.8613 6.20117ZM45.7617 6.20117L45.7617 12.2012L48.4219 12.2012Q49.2539 12.2012 49.7988 11.6973Q50.3438 11.1934 50.3438 10.3262Q50.3438 9.46484 49.8018 8.98438Q49.2598 8.50391 48.3398 8.50391L46.7227 8.50391L46.7227 6.20117L45.7617 6.20117ZM56.7891 12.2012L55.4414 12.2012L52.793 9.31836L52.7695 9.31836L52.7695 12.2012L51.8086 12.2012L51.8086 6.20117L52.7695 6.20117L52.7695 8.94922L52.793 8.94922L55.3125 6.20117L56.5723 6.20117L53.7891 9.0957L56.7891 12.2012ZM61.9336 12.2012L62.8008 12.2012L62.8008 6.20117L61.8047 6.20117L58.957 10.3496Q58.7227 10.7598 58.6523 10.9297L58.6523 6.20117L57.7734 6.20117L57.7734 12.2012L58.7695 12.2012L61.541 8.12305Q61.8047 7.66602 61.9336 7.41406L61.9336 12.2012ZM69.7734 12.2012L68.9063 12.2012L68.9063 7.41406Q68.7773 7.66602 68.5137 8.12305L65.7422 12.2012L64.7461 12.2012L64.7461 6.20117L65.625 6.20117L65.625 10.9297Q65.6953 10.7598 65.9297 10.3496L68.7773 6.20117L69.7734 6.20117L69.7734 12.2012ZM79.0254 12.2012L79.9863 12.2012L79.9863 6.20117L75.0059 6.20117L75.0059 12.2012L75.9668 12.2012L75.9668 7.02148L79.0254 7.02148L79.0254 12.2012ZM105.17 12.2012L106.518 12.2012L103.518 9.0957L106.301 6.20117L105.041 6.20117L102.521 8.94922L102.498 8.94922L102.498 6.20117L101.537 6.20117L101.537 12.2012L102.498 12.2012L102.498 9.31836L102.521 9.31836L105.17 12.2012ZM29.4082 6.86914Q28.4824 6.86914 27.9434 7.49902Q27.4043 8.12891 27.4043 9.23633Q27.4043 10.3027 27.9492 10.918Q28.4941 11.5332 29.4082 11.5332Q30.3398 11.5332 30.8408 10.9297Q31.3418 10.3262 31.3418 9.21289Q31.3418 8.08789 30.8408 7.47852Q30.3398 6.86914 29.4082 6.86914ZM85.7695 8.62695Q85.7637 7.79492 85.3682 7.33203Q84.9727 6.86914 84.2695 6.86914Q83.5898 6.86914 83.1152 7.35547Q82.6406 7.8418 82.5293 8.62695L85.7695 8.62695ZM89.168 9.75195L89.168 8.91406Q89.168 8.03516 89.6777 7.45215Q90.1875 6.86914 91.0254 6.86914Q91.8164 6.86914 92.2793 7.4375Q92.7422 8.00586 92.7422 9.00781Q92.7422 10.1973 92.2471 10.8652Q91.752 11.5332 90.8789 11.5332Q90.1348 11.5332 89.6514 11.0146Q89.168 10.4961 89.168 9.75195ZM99.0996 8.62695Q99.0938 7.79492 98.6982 7.33203Q98.3027 6.86914 97.5996 6.86914Q96.9199 6.86914 96.4453 7.35547Q95.9707 7.8418 95.8594 8.62695L99.0996 8.62695ZM34.8223 8.70898L34.8223 7.02148L36.3809 7.02148Q37.4238 7.02148 37.4238 7.80664Q37.4238 8.70898 36.2637 8.70898L34.8223 8.70898ZM2.08594 11.3105L2.08594 8.25195L3.46875 8.25195Q5.29101 8.25195 5.29102 9.75195Q5.29101 10.4902 4.81641 10.9004Q4.3418 11.3105 3.46875 11.3105L2.08594 11.3105ZM9.7207 9.36523L11.168 9.16602L11.168 9.76367Q11.168 10.5313 10.7021 11.0322Q10.2363 11.5332 9.52148 11.5332Q9 11.5332 8.68652 11.2549Q8.37305 10.9766 8.37305 10.5371Q8.37305 9.93359 8.71289 9.69629Q9.05273 9.45898 9.7207 9.36523ZM110.836 9.16602L109.389 9.36523Q108.721 9.45898 108.381 9.69629Q108.041 9.93359 108.041 10.5371Q108.041 10.9766 108.354 11.2549Q108.668 11.5332 109.189 11.5332Q109.904 11.5332 110.37 11.0322Q110.836 10.5313 110.836 9.76367L110.836 9.16602ZM46.7227 11.3809L46.7227 9.33008L48.1523 9.33008Q49.3594 9.33008 49.3594 10.3262Q49.3594 11.3809 48.1641 11.3809L46.7227 11.3809ZM34.8223 11.3809L34.8223 9.5293L36.3457 9.5293Q37.6523 9.5293 37.6523 10.4375Q37.6523 11.3809 36.4863 11.3809L34.8223 11.3809Z" />
    </g>
  </g>
</svg>