<?xml version="1.0" encoding="utf-8"?>
<svg width="170px" height="85px" viewBox="0 0 170 85" version="1.1" xmlns:xlink="http://www.w3.org/1999/xlink" xmlns="http://www.w3.org/2000/svg">
  <desc>Created with Lunacy</desc>
  <g id="Карта-Copy-2">
    <path d="M9.999 0L160.001 0Q160.246 0 160.492 0.0120442Q160.737 0.0240885 160.981 0.0481479Q161.225 0.0722074 161.468 0.108224Q161.711 0.144241 161.952 0.192128Q162.192 0.240015 162.431 0.299657Q162.669 0.3593 162.904 0.430553Q163.138 0.501807 163.37 0.584501Q163.601 0.667194 163.827 0.761128Q164.054 0.855062 164.276 0.960011Q164.498 1.06496 164.714 1.18067Q164.931 1.29638 165.142 1.42257Q165.352 1.54876 165.556 1.68514Q165.76 1.82151 165.957 1.96773Q166.155 2.11395 166.344 2.26967Q166.534 2.42539 166.716 2.59023Q166.898 2.75507 167.071 2.92864Q167.245 3.10221 167.41 3.28408Q167.575 3.46596 167.73 3.6557Q167.886 3.84545 168.032 4.0426Q168.178 4.23976 168.315 4.44385Q168.451 4.64795 168.577 4.85849Q168.704 5.06903 168.819 5.2855Q168.935 5.50198 169.04 5.72388Q169.145 5.94577 169.239 6.17255Q169.333 6.39932 169.415 6.63044Q169.498 6.86155 169.569 7.09644Q169.641 7.33134 169.7 7.56944Q169.76 7.80755 169.808 8.04829Q169.856 8.28904 169.892 8.53184Q169.928 8.77465 169.952 9.01893Q169.976 9.26321 169.988 9.50837Q170 9.75354 170 9.999L170 75.001Q170 75.2465 169.988 75.4916Q169.976 75.7368 169.952 75.9811Q169.928 76.2253 169.892 76.4682Q169.856 76.711 169.808 76.9517Q169.76 77.1925 169.7 77.4306Q169.641 77.6687 169.569 77.9035Q169.498 78.1384 169.415 78.3695Q169.333 78.6007 169.239 78.8274Q169.145 79.0542 169.04 79.2761Q168.935 79.498 168.819 79.7145Q168.704 79.931 168.577 80.1415Q168.451 80.3521 168.315 80.5561Q168.178 80.7602 168.032 80.9574Q167.886 81.1545 167.73 81.3443Q167.575 81.534 167.41 81.7159Q167.245 81.8978 167.071 82.0714Q166.898 82.2449 166.716 82.4098Q166.534 82.5746 166.344 82.7303Q166.155 82.8861 165.957 83.0323Q165.76 83.1785 165.556 83.3149Q165.352 83.4512 165.142 83.5774Q164.931 83.7036 164.714 83.8193Q164.498 83.935 164.276 84.04Q164.054 84.1449 163.827 84.2389Q163.601 84.3328 163.37 84.4155Q163.138 84.4982 162.904 84.5695Q162.669 84.6407 162.431 84.7003Q162.192 84.76 161.952 84.8079Q161.711 84.8558 161.468 84.8918Q161.225 84.9278 160.981 84.9519Q160.737 84.9759 160.492 84.988Q160.246 85 160.001 85L9.999 85Q9.75354 85 9.50837 84.988Q9.26321 84.9759 9.01893 84.9519Q8.77465 84.9278 8.53184 84.8918Q8.28904 84.8558 8.04829 84.8079Q7.80755 84.76 7.56944 84.7003Q7.33134 84.6407 7.09644 84.5695Q6.86155 84.4982 6.63044 84.4155Q6.39932 84.3328 6.17255 84.2389Q5.94577 84.1449 5.72388 84.04Q5.50198 83.935 5.2855 83.8193Q5.06903 83.7036 4.85849 83.5774Q4.64795 83.4512 4.44385 83.3149Q4.23976 83.1785 4.0426 83.0323Q3.84545 82.8861 3.6557 82.7303Q3.46596 82.5746 3.28408 82.4098Q3.10221 82.2449 2.92864 82.0714Q2.75507 81.8978 2.59023 81.7159Q2.42539 81.534 2.26967 81.3443Q2.11395 81.1545 1.96773 80.9574Q1.82151 80.7602 1.68514 80.5561Q1.54876 80.3521 1.42257 80.1415Q1.29638 79.931 1.18067 79.7145Q1.06496 79.498 0.960011 79.2761Q0.855062 79.0542 0.761128 78.8274Q0.667194 78.6007 0.584501 78.3696Q0.501807 78.1384 0.430553 77.9036Q0.3593 77.6687 0.299657 77.4306Q0.240015 77.1925 0.192128 76.9517Q0.144241 76.711 0.108224 76.4682Q0.0722074 76.2253 0.0481479 75.9811Q0.0240885 75.7368 0.0120442 75.4916Q0 75.2465 0 75.001L0 9.999Q0 9.75354 0.0120442 9.50837Q0.0240885 9.26321 0.0481479 9.01893Q0.0722074 8.77465 0.108224 8.53184Q0.144241 8.28904 0.192128 8.04829Q0.240015 7.80755 0.299657 7.56944Q0.3593 7.33134 0.430553 7.09644Q0.501807 6.86155 0.584501 6.63044Q0.667194 6.39932 0.761128 6.17255Q0.855062 5.94577 0.960011 5.72388Q1.06496 5.50198 1.18067 5.2855Q1.29638 5.06903 1.42257 4.85849Q1.54876 4.64795 1.68514 4.44385Q1.82151 4.23976 1.96773 4.0426Q2.11395 3.84545 2.26967 3.6557Q2.42539 3.46596 2.59023 3.28408Q2.75507 3.10221 2.92864 2.92864Q3.10221 2.75507 3.28408 2.59023Q3.46596 2.42539 3.6557 2.26967Q3.84545 2.11395 4.0426 1.96773Q4.23976 1.82151 4.44385 1.68514Q4.64795 1.54876 4.85849 1.42257Q5.06903 1.29638 5.2855 1.18067Q5.50198 1.06496 5.72388 0.960011Q5.94577 0.855062 6.17255 0.761128Q6.39932 0.667194 6.63044 0.584501Q6.86155 0.501807 7.09644 0.430553Q7.33134 0.3593 7.56944 0.299657Q7.80755 0.240015 8.04829 0.192128Q8.28904 0.144241 8.53184 0.108224Q8.77465 0.0722074 9.01893 0.0481479Q9.26321 0.0240885 9.50837 0.0120442Q9.75354 0 9.999 0Z" id="Rectangle-15" fill="#C5D5E6" stroke="none" />
    <g id="the-tube-terminal" transform="translate(72.11523 10)">
      <path d="M21.1703 38.9681L0.568966 38.9681C0.254707 38.9681 0 38.7113 0 38.3945L0 2.69444C0 1.20862 1.199 0 2.673 0L19.0664 0C20.5402 0 21.7394 1.20862 21.7394 2.69444L21.7394 38.3945C21.7392 38.7113 21.4845 38.9681 21.1703 38.9681ZM1.13867 25.6496L20.602 25.6496L20.602 2.69448C20.602 1.84126 19.9134 1.14709 19.067 1.14709L2.67374 1.14709C1.82731 1.14709 1.13867 1.84126 1.13867 2.69448L1.13867 25.6496ZM17.6231 18.051L4.11584 18.051C3.80158 18.051 3.54688 17.7943 3.54688 17.4775L3.54688 4.43583C3.54688 4.11905 3.80158 3.8623 4.11584 3.8623L17.6231 3.8623C17.9373 3.8623 18.192 4.11905 18.192 4.43583L18.192 17.4775C18.192 17.7943 17.9373 18.051 17.6231 18.051ZM17.0549 16.904L4.68555 16.904L4.68555 5.0094L17.0549 5.0094L17.0549 16.904ZM4.11584 20.6595L4.41284 20.6595C4.7271 20.6595 4.98181 20.4028 4.98181 20.086C4.98181 19.7692 4.7271 19.5125 4.41284 19.5125L4.11584 19.5125C3.80158 19.5125 3.54688 19.7692 3.54688 20.086C3.54688 20.4028 3.80158 20.6595 4.11584 20.6595ZM6.85034 20.6595L6.55334 20.6595C6.23908 20.6595 5.98438 20.4028 5.98438 20.086C5.98438 19.7692 6.23908 19.5125 6.55334 19.5125L6.85034 19.5125C7.1646 19.5125 7.41931 19.7692 7.41931 20.086C7.41931 20.4028 7.1646 20.6595 6.85034 20.6595ZM8.99279 20.6595L9.28979 20.6595C9.60405 20.6595 9.85876 20.4028 9.85876 20.086C9.85876 19.7692 9.60405 19.5125 9.28979 19.5125L8.99279 19.5125C8.67854 19.5125 8.42383 19.7692 8.42383 20.086C8.42383 20.4028 8.67854 20.6595 8.99279 20.6595ZM17.6238 23.5187L13.2213 23.5187C12.9071 23.5187 12.6523 23.262 12.6523 22.9452L12.6523 20.086C12.6523 19.7692 12.9071 19.5125 13.2213 19.5125L17.6238 19.5125C17.938 19.5125 18.1927 19.7692 18.1927 20.086L18.1927 22.9452C18.1927 23.2618 17.938 23.5187 17.6238 23.5187ZM17.0536 22.3716L13.7891 22.3716L13.7891 20.6594L17.0536 20.6594L17.0536 22.3716ZM4.41284 22.4903L4.11584 22.4903C3.80158 22.4903 3.54688 22.2336 3.54688 21.9168C3.54688 21.6 3.80158 21.3433 4.11584 21.3433L4.41284 21.3433C4.7271 21.3433 4.98181 21.6 4.98181 21.9168C4.98181 22.2336 4.7271 22.4903 4.41284 22.4903ZM6.55334 22.4903L6.85034 22.4903C7.1646 22.4903 7.41931 22.2336 7.41931 21.9168C7.41931 21.6 7.1646 21.3433 6.85034 21.3433L6.55334 21.3433C6.23908 21.3433 5.98438 21.6 5.98438 21.9168C5.98438 22.2336 6.23908 22.4903 6.55334 22.4903ZM9.28979 22.4903L8.99279 22.4903C8.67854 22.4903 8.42383 22.2336 8.42383 21.9168C8.42383 21.6 8.67854 21.3433 8.99279 21.3433L9.28979 21.3433C9.60405 21.3433 9.85876 21.6 9.85876 21.9168C9.85876 22.2336 9.60405 22.4903 9.28979 22.4903ZM4.11584 24.3213L4.41284 24.3213C4.7271 24.3213 4.98181 24.0645 4.98181 23.7477C4.98181 23.4309 4.7271 23.1742 4.41284 23.1742L4.11584 23.1742C3.80158 23.1742 3.54688 23.4309 3.54688 23.7477C3.54688 24.0645 3.80158 24.3213 4.11584 24.3213ZM6.85034 24.3213L6.55334 24.3213C6.23908 24.3213 5.98438 24.0645 5.98438 23.7477C5.98438 23.4309 6.23908 23.1742 6.55334 23.1742L6.85034 23.1742C7.1646 23.1742 7.41931 23.4309 7.41931 23.7477C7.41931 24.0645 7.1646 24.3213 6.85034 24.3213ZM8.99279 24.3213L9.28979 24.3213C9.60405 24.3213 9.85876 24.0645 9.85876 23.7477C9.85876 23.4309 9.60405 23.1742 9.28979 23.1742L8.99279 23.1742C8.67854 23.1742 8.42383 23.4309 8.42383 23.7477C8.42383 24.0645 8.67854 24.3213 8.99279 24.3213ZM20.602 37.821L1.13867 37.821L1.13867 26.7964L20.602 26.7964L20.602 37.821Z" id="Shape" fill="#FFFFFF" fill-rule="evenodd" stroke="none" />
    </g>
    <g id="Термінали-України" fill="#FFFFFF" transform="translate(32 61)">
      <path d="M29.5078 4.67773Q29.25 4.67773 29.0684 4.50195Q28.8867 4.32617 28.8867 4.05664Q28.8867 3.78711 29.0684 3.6084Q29.25 3.42969 29.5078 3.42969Q29.7715 3.42969 29.9561 3.6084Q30.1406 3.78711 30.1406 4.05664Q30.1406 4.31445 29.9561 4.49609Q29.7715 4.67774 29.5078 4.67773ZM3.64453 4.68945L6.07031 4.68945L6.07031 3.79883L0.240234 3.79883L0.240234 4.68945L2.66016 4.68945L2.66016 12.2012L3.64453 12.2012L3.64453 4.68945ZM64.8457 9.66406L67.4414 3.79883L66.3867 3.79883L64.5176 8.26367Q64.2949 8.7793 64.2773 8.83203L64.2656 8.83203Q64.1016 8.39844 64.0488 8.28711L62.0332 3.79883L60.9141 3.79883L63.7617 9.81055Q63.2988 10.7363 62.9004 11.1025Q62.502 11.4688 62.0273 11.4688Q61.5586 11.4688 61.0547 11.1699L61.0547 12.166Q61.4766 12.3477 62.1035 12.3477Q62.8652 12.3477 63.5098 11.7852Q64.1543 11.2227 64.8457 9.66406ZM86.4053 4.8916Q86.5781 5.06445 86.8242 5.06445Q87.0586 5.06445 87.2285 4.89453Q87.3984 4.72461 87.3984 4.48438Q87.3984 4.24414 87.2227 4.07715Q87.0469 3.91016 86.8066 3.91016Q86.5664 3.91016 86.3994 4.07422Q86.2324 4.23828 86.2324 4.48438Q86.2324 4.71875 86.4053 4.8916ZM88.6699 4.90039Q88.8398 5.06445 89.0742 5.06445Q89.3203 5.06445 89.4844 4.89453Q89.6484 4.72461 89.6484 4.48438Q89.6484 4.24414 89.4785 4.07715Q89.3086 3.91016 89.0625 3.91016Q88.8281 3.91016 88.6641 4.07422Q88.5 4.23828 88.5 4.48438Q88.5 4.73633 88.6699 4.90039ZM7.8457 9.44141L12.082 9.44141L12.082 8.9375Q12.082 7.58398 11.4375 6.82227Q10.793 6.06055 9.61523 6.06055Q8.4375 6.06055 7.64355 6.94238Q6.84961 7.82422 6.84961 9.22461Q6.84961 10.707 7.57617 11.5244Q8.30273 12.3418 9.57422 12.3418Q10.875 12.3418 11.666 11.7676L11.666 10.8652Q10.8164 11.5332 9.80273 11.5332Q8.90039 11.5332 8.38477 10.9883Q7.86914 10.4434 7.8457 9.44141ZM14.5195 11.334L14.4961 11.334L14.4961 14.9609L13.5352 14.9609L13.5352 6.20117L14.4961 6.20117L14.4961 7.25586L14.5195 7.25586Q15.2285 6.06055 16.5938 6.06055Q17.7539 6.06055 18.4043 6.86621Q19.0547 7.67188 19.0547 9.02539Q19.0547 10.5313 18.3223 11.4365Q17.5898 12.3418 16.3184 12.3418Q15.1523 12.3418 14.5195 11.334ZM43.1426 12.2012L42.1816 12.2012L42.1816 11.2637L42.1582 11.2637Q41.5313 12.3418 40.3125 12.3418Q39.416 12.3418 38.9092 11.8672Q38.4023 11.3926 38.4023 10.6074Q38.4023 8.92578 40.3828 8.65039L42.1816 8.39844Q42.1816 6.86914 40.9453 6.86914Q39.8613 6.86914 38.9883 7.60742L38.9883 6.62305Q39.873 6.06055 41.0273 6.06055Q43.1426 6.06055 43.1426 8.29883L43.1426 12.2012ZM75.2695 11.334L75.293 11.334Q75.9258 12.3418 77.0918 12.3418Q78.3633 12.3418 79.0957 11.4365Q79.8281 10.5313 79.8281 9.02539Q79.8281 7.67188 79.1777 6.86621Q78.5273 6.06055 77.3672 6.06055Q76.002 6.06055 75.293 7.25586L75.2695 7.25586L75.2695 6.20117L74.3086 6.20117L74.3086 14.9609L75.2695 14.9609L75.2695 11.334ZM85.6582 12.2012L84.6973 12.2012L84.6973 11.2637L84.6738 11.2637Q84.0469 12.3418 82.8281 12.3418Q81.9316 12.3418 81.4248 11.8672Q80.918 11.3926 80.918 10.6074Q80.918 8.92578 82.8984 8.65039L84.6973 8.39844Q84.6973 6.86914 83.4609 6.86914Q82.377 6.86914 81.5039 7.60742L81.5039 6.62305Q82.3887 6.06055 83.543 6.06055Q85.6582 6.06055 85.6582 8.29883L85.6582 12.2012ZM26.1211 12.2012L27.0703 12.2012L27.0703 6.20117L25.793 6.20117L24.2578 10.1387L23.8301 11.2988Q23.5664 10.543 23.3965 10.1152L21.8145 6.20117L20.5898 6.20117L20.5898 12.2012L21.416 12.2012L21.416 7.25586Q21.6914 8.04688 21.8145 8.35742L23.3613 12.2012L24.2227 12.2012L25.7227 8.35742Q25.9922 7.63086 26.1211 7.25586L26.1211 12.2012ZM29.9766 12.2012L29.0156 12.2012L29.0156 6.20117L29.9766 6.20117L29.9766 12.2012ZM35.9414 12.2012L36.9023 12.2012L36.9023 6.20117L35.9414 6.20117L35.9414 8.66211L32.8828 8.66211L32.8828 6.20117L31.9219 6.20117L31.9219 12.2012L32.8828 12.2012L32.8828 9.47656L35.9414 9.47656L35.9414 12.2012ZM48.375 12.2012L49.3301 12.2012L49.3301 6.20117L46.1777 6.20117Q45.8086 11.4805 44.5195 11.4805Q44.2793 11.4805 44.0742 11.375L44.0742 12.2012Q44.291 12.2832 44.5898 12.2832Q45.5742 12.2832 46.1572 11.1055Q46.7402 9.92773 46.9805 7.01563L48.375 7.01563L48.375 12.2012ZM56.3027 12.2012L55.4355 12.2012L55.4355 7.41406Q55.3066 7.66602 55.043 8.12305L52.2715 12.2012L51.2754 12.2012L51.2754 6.20117L52.1543 6.20117L52.1543 10.9297Q52.2246 10.7598 52.459 10.3496L55.3066 6.20117L56.3027 6.20117L56.3027 12.2012ZM73.3242 12.2012L71.9766 12.2012L69.3281 9.31836L69.3047 9.31836L69.3047 12.2012L68.3438 12.2012L68.3438 6.20117L69.3047 6.20117L69.3047 8.94922L69.3281 8.94922L71.8477 6.20117L73.1074 6.20117L70.3242 9.0957L73.3242 12.2012ZM87.4688 12.2012L88.4297 12.2012L88.4297 6.20117L87.4688 6.20117L87.4688 12.2012ZM95.3555 12.2012L94.3945 12.2012L94.3945 9.47656L91.3359 9.47656L91.3359 12.2012L90.375 12.2012L90.375 6.20117L91.3359 6.20117L91.3359 8.66211L94.3945 8.66211L94.3945 6.20117L95.3555 6.20117L95.3555 12.2012ZM101.461 12.2012L102.328 12.2012L102.328 6.20117L101.332 6.20117L98.4844 10.3496Q98.25 10.7598 98.1797 10.9297L98.1797 6.20117L97.3008 6.20117L97.3008 12.2012L98.2969 12.2012L101.068 8.12305Q101.332 7.66602 101.461 7.41406L101.461 12.2012ZM10.6963 7.33203Q11.0918 7.79492 11.0977 8.62695L7.85742 8.62695Q7.96875 7.8418 8.44336 7.35547Q8.91797 6.86914 9.59766 6.86914Q10.3008 6.86914 10.6963 7.33203ZM14.4961 8.91406L14.4961 9.75195Q14.4961 10.4961 14.9795 11.0146Q15.4629 11.5332 16.207 11.5332Q17.0801 11.5332 17.5752 10.8652Q18.0703 10.1973 18.0703 9.00781Q18.0703 8.00586 17.6074 7.4375Q17.1445 6.86914 16.3535 6.86914Q15.5156 6.86914 15.0059 7.45215Q14.4961 8.03516 14.4961 8.91406ZM75.2695 9.75195L75.2695 8.91406Q75.2695 8.03516 75.7793 7.45215Q76.2891 6.86914 77.127 6.86914Q77.918 6.86914 78.3809 7.4375Q78.8438 8.00586 78.8438 9.00781Q78.8438 10.1973 78.3486 10.8652Q77.8535 11.5332 76.9805 11.5332Q76.2363 11.5332 75.7529 11.0146Q75.2695 10.4961 75.2695 9.75195ZM42.1816 9.16602L40.7344 9.36523Q40.0664 9.45898 39.7266 9.69629Q39.3867 9.93359 39.3867 10.5371Q39.3867 10.9766 39.7002 11.2549Q40.0137 11.5332 40.5352 11.5332Q41.25 11.5332 41.7158 11.0322Q42.1816 10.5313 42.1816 9.76367L42.1816 9.16602ZM84.6973 9.16602L83.25 9.36523Q82.582 9.45898 82.2422 9.69629Q81.9023 9.93359 81.9023 10.5371Q81.9023 10.9766 82.2158 11.2549Q82.5293 11.5332 83.0508 11.5332Q83.7656 11.5332 84.2314 11.0322Q84.6973 10.5313 84.6973 9.76367L84.6973 9.16602Z" />
    </g>
  </g>
</svg>