<?xml version="1.0" encoding="utf-8"?>
<svg width="40px" height="56px" viewBox="0 0 40 56" version="1.1" xmlns:xlink="http://www.w3.org/1999/xlink" xmlns="http://www.w3.org/2000/svg">
  <desc>Created with Lunacy</desc>
  <g id="clothes1-instance">
    <path d="M16.0343 28.6532L10.0962 28.6532L10.0962 1.94175L13.7651 1.94175C14.2328 4.90809 16.8065 7.18395 19.9021 7.18395C22.9978 7.18395 25.5715 4.90809 26.0394 1.94175L29.7078 1.94175L29.7078 16.8092C29.7078 17.3454 30.1425 17.7801 30.6787 17.7801C31.2149 17.7801 31.6496 17.3454 31.6496 16.8092L31.6496 14.1921L33.739 15.2368C33.8777 15.3061 34.026 15.3393 34.1727 15.3393C34.4798 15.3393 34.7792 15.1935 34.9665 14.9282L39.6265 8.3266C39.9183 7.91314 39.8436 7.34485 39.4549 7.02084L31.3038 0.228479C31.1349 0.0860841 30.9169 0 30.6787 0L9.12532 0C8.88674 0 8.66862 0.086343 8.49956 0.229126L0.349396 7.02084C-0.0393414 7.34485 -0.114163 7.91314 0.177746 8.3266L4.83781 14.9282C5.02512 15.1934 5.32454 15.3393 5.6316 15.3393C5.77813 15.3393 5.92648 15.306 6.06525 15.2368L8.15457 14.1921L8.15457 29.6241C8.15457 30.1603 8.58927 30.595 9.12545 30.595L16.0344 30.595C16.5706 30.595 17.0053 30.1603 17.0053 29.6241C17.0053 29.0879 16.5705 28.6532 16.0343 28.6532ZM19.9013 5.24223C17.8799 5.24223 16.1832 3.83057 15.7422 1.94177L24.0604 1.94177C23.6193 3.8307 21.9226 5.24223 19.9013 5.24223ZM2.28125 7.93888L5.94339 13.1268L8.15491 12.0211L8.15491 3.04425L2.28125 7.93888ZM31.6504 12.0211L33.8619 13.1268L37.524 7.93888L31.6504 3.04425L31.6504 12.0211Z" id="Shape" fill="#C5D5E6" fill-rule="evenodd" stroke="none" />
    <path d="M0.970874 0L20.4914 0C21.0276 0 21.4623 0.434563 21.462 0.970874L21.462 35.1811C21.462 35.7173 21.0273 36.152 20.4911 36.152L13.0153 36.152C12.5001 36.152 12.0746 35.7494 12.046 35.235L10.731 11.5784L9.41605 35.235C9.38757 35.7495 8.96194 36.152 8.44673 36.152L0.970874 36.152C0.434693 36.152 0 35.7173 0 35.1811L0 0.970874C0 0.434693 0.434693 0 0.970874 0ZM5.00289 1.94177L5.00289 4.11459L1.94141 4.11459L1.94141 1.94177L5.00289 1.94177ZM6.94531 1.94177L6.94531 4.11459L14.5176 4.11459L14.5176 1.94177L6.94531 1.94177ZM19.5205 4.11459L16.459 4.11459L16.459 1.94177L19.5205 1.94177L19.5205 4.11459ZM12.6138 10.4695L13.9335 34.2101L19.5202 34.2101L19.5202 6.05634L1.94141 6.05634L1.94141 34.2101L7.52807 34.2101L8.84768 10.4695C8.87616 9.95498 9.30179 9.55252 9.81701 9.55252L11.6444 9.55252C12.1597 9.55252 12.5852 9.95511 12.6138 10.4695Z" transform="translate(18.18359 18.90784)" id="Shape" fill="#C5D5E6" fill-rule="evenodd" stroke="none" />
  </g>
</svg>