<?xml version="1.0" encoding="utf-8"?>
<svg width="40px" height="33px" viewBox="0 0 40 33" version="1.1" xmlns:xlink="http://www.w3.org/1999/xlink" xmlns="http://www.w3.org/2000/svg">
  <desc>Created with Lunacy</desc>
  <path d="M0.0329412 3.61882C0.0329412 1.62353 1.67059 0 3.68 0L40 0L40 29.0824L35.3929 29.0824L35.3929 32.9765L3.64706 32.9765C1.63529 32.9765 0 31.3529 0 29.3576L0 3.61882L0.0329412 3.61882ZM35.3938 4.65647L35.3938 14.1506L37.6479 14.1506L37.6479 2.35294L3.68084 2.35294C2.97025 2.35294 2.38907 2.91999 2.38672 3.61882C2.38672 4.33411 3.03848 4.65647 3.68084 4.65647L35.3938 4.65647ZM3.64763 30.6212C2.93469 30.6212 2.35352 30.0541 2.35352 29.3553L2.35352 6.80705C2.40999 6.82352 2.48057 6.81882 2.53705 6.83529C2.87352 6.93411 3.22646 6.99529 3.60293 7.00235C3.6194 7.00235 3.63116 7.00941 3.64763 7.00941L33.0429 7.00941L33.0429 14.1506L26.3159 14.1506C24.2876 14.1506 22.6382 15.7341 22.6382 17.68L22.6382 20.0329C22.6382 21.9788 24.2876 23.5623 26.3159 23.5623L33.0429 23.5623L33.0429 30.6212L3.64763 30.6212ZM24.9883 20.0329C24.9883 20.6823 25.5812 21.2094 26.313 21.2094L37.6471 21.2094L37.6471 16.5035L26.313 16.5035C25.5836 16.5035 24.9883 17.0306 24.9883 17.68L24.9883 20.0329ZM37.6467 26.7271L35.3926 26.7271L35.3926 23.5623L37.6467 23.5623L37.6467 26.7271Z" id="Shape" fill="#C5D5E6" fill-rule="evenodd" stroke="none" />
</svg>